<svg width="195" height="195" viewBox="0 0 195 195" fill="none" xmlns="http://www.w3.org/2000/svg">
<path d="M97.166 194.334C84.502 194.334 72.194 191.936 60.581 187.206C60.55 187.194 60.518 187.182 60.487 187.169C44.063 180.469 29.766 169.374 19.14 155.083C8.31798 140.527 1.81299 123.289 0.329987 105.231C0.110987 102.55 0 99.837 0 97.167C0 81.595 3.57399 66.717 10.624 52.947C17.346 39.816 27.157 28.19 38.996 19.327C55.887 6.683 76.002 0 97.166 0C106.725 0 116.168 1.385 125.231 4.117C141.044 8.879 155.503 17.708 167.043 29.65C178.606 41.616 186.941 56.401 191.146 72.408C193.261 80.447 194.333 88.778 194.333 97.167C194.333 112.69 190.581 128.132 183.485 141.823C176.619 155.069 166.615 166.743 154.555 175.582C137.822 187.85 117.977 194.334 97.166 194.334Z" fill="white"/>
<path d="M190.595 97.167C190.595 100.923 190.375 104.63 189.941 108.27C188.039 124.321 158.093 122 149.112 134.498C137.736 150.329 145.509 179.583 126.633 185.854C117.638 188.84 108.033 190.499 98.0548 190.593C97.7598 190.593 96.6088 186.28 96.3128 186.28C95.0308 186.28 93.1288 179.206 91.8618 179.153C71.2178 178.323 70.0478 162.766 54.9688 150.657C53.2838 149.301 35.3789 167.288 33.7899 165.819C15.3099 148.748 3.73584 124.31 3.73584 97.167C3.73584 85.507 5.86984 74.348 9.77084 64.056C15.6828 48.457 54.3138 62.759 67.0538 52.441C79.9998 41.954 67.1439 6.952 84.4579 4.598C88.6139 4.03 92.8548 3.739 97.1638 3.739C114 3.739 129.797 8.19 143.438 15.986C143.734 16.154 142.853 19.875 143.147 20.048C143.402 20.197 144.832 16.798 145.086 16.951C172.347 33.265 190.595 63.084 190.595 97.167Z" fill="#F8BDFF"/>
<path d="M108.654 47.859C108.654 75.895 85.928 98.621 57.892 98.621C35.521 98.621 16.533 84.151 9.77197 64.056C21.694 32.604 50.111 9.265 84.46 4.597C98.974 13.529 108.654 29.566 108.654 47.859Z" fill="#B5E1E8"/>
<path d="M189.941 108.271C185.632 144.656 160.414 174.636 126.633 185.855C111.333 177.11 101.022 160.637 101.022 141.753C101.022 113.717 123.748 90.991 151.784 90.991C166.991 90.99 180.639 97.676 189.941 108.271Z" fill="#B5E1E8"/>
<path d="M143.439 15.985C141.507 22.095 138.383 27.824 134.234 32.694C129.286 38.502 123.407 42.493 117.234 44.234C117.103 44.271 116.976 44.305 116.845 44.342C117.193 40.567 116.24 36.707 114.094 33.542C111.299 29.409 106.657 26.722 101.683 26.348C97.9048 26.064 93.1398 27.57 91.6188 31.543C89.9928 35.8 92.8858 40.296 96.4768 42.863C101.417 46.395 107.973 47.77 114.509 46.742C114.468 46.888 114.423 47.03 114.378 47.172C112.629 52.711 107.939 56.638 102.441 60.839L103.577 62.326C109.329 57.927 114.247 53.794 116.16 47.736C116.306 47.276 116.429 46.813 116.53 46.346C116.934 46.249 117.337 46.148 117.741 46.032C124.27 44.19 130.466 39.996 135.657 33.909C139.872 28.957 143.071 23.146 145.086 16.95C144.542 16.62 143.993 16.299 143.439 15.985ZM114.906 44.776C108.624 45.942 102.282 44.716 97.5649 41.342C94.6539 39.264 92.1008 35.516 93.3638 32.208C94.4478 29.386 97.8038 28.183 100.756 28.183C101.021 28.183 101.287 28.19 101.545 28.213C105.888 28.538 110.103 30.979 112.547 34.589C114.532 37.518 115.369 41.252 114.906 44.776Z" fill="#412945"/>
<path d="M117.179 44.739C118.122 44.503 68.8699 43.796 68.8699 43.796L59.9149 49.687L39.6489 44.503V39.79L58.9729 34.134L68.3989 38.376H116.708L117.179 44.739Z" fill="#F7EDE5"/>
<path d="M105.446 50.45V48.626L107.035 48.193L105.446 47.505V42.168L107.353 41.641L105.446 41.002V34.413L107.925 33.943L105.446 33.292V31.749H148.136C151.645 31.749 154.489 34.593 154.489 38.102V44.096C154.489 47.605 151.645 50.449 148.136 50.449L105.446 50.45Z" fill="#E36352"/>
<path d="M105.674 47.505C120.952 47.505 136.969 46.739 138.684 45.397C137.013 43.981 120.861 42.669 105.446 42.168V41.002C107.842 40.953 114.329 40.8 120.858 40.415C135.837 39.533 137.593 38.232 137.799 37.915C137.668 37.668 136.256 36.244 121.4 35.176C113.903 34.642 106.429 34.436 105.446 34.414V33.293C106.328 33.312 114.045 33.521 121.718 34.078C138.554 35.304 138.801 36.971 138.917 37.774C138.951 37.991 138.928 38.316 138.644 38.645C137.209 40.334 127.395 41.22 118.609 41.676C119.7 41.739 120.803 41.814 121.909 41.889C126.973 42.244 131.013 42.644 133.92 43.077C138.823 43.809 139.851 44.523 139.877 45.375C139.884 45.554 139.84 45.824 139.582 46.089C137.269 48.477 112.409 48.63 105.447 48.626V47.505H105.674Z" fill="#F7EDE5"/>
<path d="M178.883 60.003V123.585L97.33 126.153L16.293 123.585V60.003H178.883Z" fill="#412945"/>
<path d="M178.883 123.585H16.293V128.462H178.883V123.585Z" fill="#6E72FF"/>
<path d="M174.948 64.294H20.5689C20.2909 64.294 20.0659 64.519 20.0659 64.797V119.563C20.0659 119.841 20.2909 120.066 20.5689 120.066H174.947C175.225 120.066 175.45 119.841 175.45 119.563V64.797C175.451 64.518 175.226 64.294 174.948 64.294ZM174.445 119.06H21.0719V65.299H174.445V119.06Z" fill="#F7EDE5"/>
<path d="M175.451 72.13H20.0669V73.206H175.451V72.13Z" fill="#F7EDE5"/>
<path d="M175.451 81.756H20.0669V82.835H175.451V81.756Z" fill="#F7EDE5"/>
<path d="M153.236 91.385H20.0669V92.461H153.236V91.385Z" fill="#F7EDE5"/>
<path d="M175.451 91.385H162.255V92.461H175.451V91.385Z" fill="#F7EDE5"/>
<path d="M175.451 101.011H20.0669V102.087H175.451V101.011Z" fill="#F7EDE5"/>
<path d="M175.451 110.637H20.0669V111.716H175.451V110.637Z" fill="#F7EDE5"/>
<path d="M32.0619 64.967V73.205H30.9858V64.967C30.9858 64.669 31.2239 64.427 31.5219 64.427C31.8209 64.428 32.0619 64.669 32.0619 64.967Z" fill="#F7EDE5"/>
<path d="M32.0619 81.756H30.9858V111.717H32.0619V81.756Z" fill="#F7EDE5"/>
<path d="M30.9858 119.06H32.0619V119.563C32.0619 119.794 31.9178 119.992 31.7128 120.066C31.6528 120.089 31.5889 120.103 31.5219 120.103C31.4549 120.103 31.3908 120.089 31.3308 120.066C31.1298 119.992 30.9858 119.794 30.9858 119.563V119.06Z" fill="#F7EDE5"/>
<path d="M42.161 64.967V111.716H41.082V64.967C41.082 64.669 41.323 64.427 41.622 64.427C41.92 64.428 42.161 64.669 42.161 64.967Z" fill="#F7EDE5"/>
<path d="M41.0821 119.06H42.1611V119.563C42.1611 119.794 42.0171 119.992 41.8121 120.066C41.7521 120.089 41.6881 120.103 41.6211 120.103C41.5541 120.103 41.4901 120.089 41.4301 120.066C41.2261 119.992 41.0811 119.794 41.0811 119.563V119.06H41.0821Z" fill="#F7EDE5"/>
<path d="M52.2557 64.967V119.562C52.2557 119.793 52.1117 119.991 51.9107 120.065C51.8507 120.088 51.7867 120.102 51.7197 120.102C51.6527 120.102 51.5887 120.088 51.5287 120.065C51.3247 119.991 51.1797 119.793 51.1797 119.562V64.967C51.1797 64.669 51.4207 64.427 51.7197 64.427C52.0177 64.428 52.2557 64.669 52.2557 64.967Z" fill="#F7EDE5"/>
<path d="M62.3549 64.967V119.562C62.3549 119.793 62.2108 119.991 62.0058 120.065C61.9458 120.088 61.8818 120.102 61.8148 120.102C61.7478 120.102 61.6838 120.088 61.6268 120.065C61.4218 119.991 61.2778 119.793 61.2778 119.562V64.967C61.2778 64.669 61.5188 64.427 61.8138 64.427C62.1128 64.428 62.3549 64.669 62.3549 64.967Z" fill="#F7EDE5"/>
<path d="M72.453 64.967V111.716H71.377V64.967C71.377 64.669 71.618 64.427 71.913 64.427C72.212 64.428 72.453 64.669 72.453 64.967Z" fill="#F7EDE5"/>
<path d="M71.378 119.06H72.454V119.563C72.454 119.794 72.31 119.992 72.105 120.066C72.045 120.089 71.981 120.103 71.914 120.103C71.847 120.103 71.783 120.089 71.726 120.066C71.522 119.992 71.377 119.794 71.377 119.563V119.06H71.378Z" fill="#F7EDE5"/>
<path d="M82.5517 64.967V111.716H81.4727V64.967C81.4727 64.669 81.7137 64.427 82.0127 64.427C82.3107 64.428 82.5517 64.669 82.5517 64.967Z" fill="#F7EDE5"/>
<path d="M81.4727 119.06H82.5517V119.563C82.5517 119.794 82.4077 119.992 82.2027 120.066C82.1427 120.089 82.0787 120.103 82.0117 120.103C81.9447 120.103 81.8807 120.089 81.8207 120.066C81.6167 119.992 81.4717 119.794 81.4717 119.563V119.06H81.4727Z" fill="#F7EDE5"/>
<path d="M92.6508 64.967V111.716H91.5718V64.967C91.5718 64.669 91.8128 64.427 92.1118 64.427C92.4108 64.427 92.6508 64.669 92.6508 64.967Z" fill="#F7EDE5"/>
<path d="M91.5708 119.06H92.6498V119.563C92.6498 119.794 92.5058 119.992 92.3008 120.066C92.2408 120.089 92.1768 120.103 92.1098 120.103C92.0428 120.103 91.9788 120.089 91.9188 120.066C91.7148 119.992 91.5698 119.794 91.5698 119.563L91.5708 119.06Z" fill="#F7EDE5"/>
<path d="M102.746 64.967V111.716H101.67V64.967C101.67 64.669 101.911 64.427 102.21 64.427C102.505 64.428 102.746 64.669 102.746 64.967Z" fill="#F7EDE5"/>
<path d="M101.67 119.06H102.746V119.563C102.746 119.794 102.602 119.992 102.397 120.066C102.34 120.089 102.276 120.103 102.209 120.103C102.142 120.103 102.078 120.089 102.018 120.066C101.814 119.992 101.669 119.794 101.669 119.563L101.67 119.06Z" fill="#F7EDE5"/>
<path d="M112.844 64.967V111.716H111.768V64.967C111.768 64.669 112.009 64.427 112.304 64.427C112.603 64.428 112.844 64.669 112.844 64.967Z" fill="#F7EDE5"/>
<path d="M111.769 119.06H112.845V119.563C112.845 119.794 112.701 119.992 112.496 120.066C112.436 120.089 112.372 120.103 112.305 120.103C112.238 120.103 112.174 120.089 112.117 120.066C111.913 119.992 111.768 119.794 111.768 119.563L111.769 119.06Z" fill="#F7EDE5"/>
<path d="M122.943 64.967V111.716H121.864V64.967C121.864 64.669 122.105 64.427 122.404 64.427C122.702 64.428 122.943 64.669 122.943 64.967Z" fill="#F7EDE5"/>
<path d="M121.864 119.06H122.943V119.563C122.943 119.794 122.799 119.992 122.594 120.066C122.534 120.089 122.47 120.103 122.403 120.103C122.336 120.103 122.272 120.089 122.212 120.066C122.008 119.992 121.863 119.794 121.863 119.563L121.864 119.06Z" fill="#F7EDE5"/>
<path d="M133.042 64.967V119.562C133.042 119.793 132.898 119.991 132.693 120.065C132.633 120.088 132.569 120.102 132.502 120.102C132.435 120.102 132.371 120.088 132.311 120.065C132.107 119.991 131.962 119.793 131.962 119.562V64.967C131.962 64.669 132.203 64.427 132.502 64.427C132.8 64.428 133.042 64.669 133.042 64.967Z" fill="#F7EDE5"/>
<path d="M143.137 64.967V119.562C143.137 119.793 142.993 119.991 142.788 120.065C142.731 120.088 142.667 120.102 142.6 120.102C142.533 120.102 142.469 120.088 142.409 120.065C142.205 119.991 142.06 119.793 142.06 119.562V64.967C142.06 64.669 142.301 64.427 142.6 64.427C142.896 64.428 143.137 64.669 143.137 64.967Z" fill="#F7EDE5"/>
<path d="M153.236 64.967V92.461H152.16V64.967C152.16 64.669 152.401 64.427 152.696 64.427C152.994 64.428 153.236 64.669 153.236 64.967Z" fill="#F7EDE5"/>
<path d="M153.236 101.011V119.563C153.236 119.794 153.092 119.992 152.887 120.066C152.827 120.089 152.763 120.103 152.696 120.103C152.629 120.103 152.565 120.089 152.508 120.066C152.304 119.992 152.159 119.794 152.159 119.563V101.011H153.236Z" fill="#F7EDE5"/>
<path d="M163.334 64.967V111.716H162.255V64.967C162.255 64.669 162.496 64.427 162.795 64.427C163.093 64.428 163.334 64.669 163.334 64.967Z" fill="#F7EDE5"/>
<path d="M162.255 119.06H163.334V119.563C163.334 119.794 163.19 119.992 162.985 120.066C162.925 120.089 162.861 120.103 162.794 120.103C162.727 120.103 162.663 120.089 162.603 120.066C162.399 119.992 162.254 119.794 162.254 119.563V119.06H162.255Z" fill="#F7EDE5"/>
<path d="M113.045 117.326C113.045 117.326 111.901 120.76 109.42 125.338C106.938 129.92 97.5879 141.561 95.6779 154.537C94.2949 163.928 93.2799 174.927 93.0069 183.926C72.3629 183.096 54.2709 177.714 39.1919 165.606C40.5079 156.465 41.4969 150.501 42.2439 144.806C43.7729 133.165 42.1169 99.833 53.9489 96.589C53.9489 96.589 59.5469 77.376 64.3829 77.63C69.7049 77.91 68.6659 84.211 68.5869 84.667C68.7479 84.14 71.4249 74.584 76.7859 75.152C81.2699 75.627 80.3769 82.66 80.2319 83.314C80.4299 82.611 83.2699 72.902 88.2369 74.005C93.3869 75.152 89.3939 127.535 89.3939 127.535C89.3939 127.535 102.932 110.644 113.045 117.326Z" fill="#FF9582"/>
<path d="M50.4507 121.129C50.1427 121.129 49.8917 120.88 49.8897 120.572C49.8887 120.445 49.8697 107.75 53.6687 95.782C57.3017 84.337 60.0157 76.833 64.4087 77.072C68.6767 77.285 69.1217 83.625 69.1387 83.894C69.1577 84.203 68.9237 84.469 68.6147 84.488C68.3047 84.511 68.0397 84.273 68.0197 83.964C68.0167 83.908 67.6227 78.355 64.3527 78.191C61.0607 78.031 58.6347 83.842 54.7377 96.121C50.9907 107.922 51.0097 120.441 51.0107 120.566C51.0127 120.876 50.7627 121.128 50.4527 121.129H50.4507Z" fill="#412945"/>
<path d="M59.8031 117.503C59.7841 117.503 59.7661 117.502 59.7471 117.5C59.4391 117.469 59.214 117.195 59.245 116.887C59.259 116.746 60.695 102.644 64.369 93.203L65.029 91.501C68.583 82.324 71.6531 74.399 76.3411 74.399C77.5091 74.399 78.474 74.813 79.209 75.629C81.161 77.797 80.734 82.089 80.715 82.27C80.683 82.578 80.406 82.798 80.099 82.769C79.791 82.737 79.5681 82.461 79.6001 82.153C79.6041 82.113 79.993 78.173 78.374 76.377C77.854 75.8 77.189 75.519 76.34 75.519C72.42 75.519 69.3371 83.478 66.0741 91.905L65.413 93.61C61.794 102.906 60.374 116.859 60.36 116.998C60.331 117.287 60.0871 117.503 59.8031 117.503Z" fill="#412945"/>
<path d="M88.6818 135.95C88.6638 135.95 88.6468 135.949 88.6288 135.948C88.3208 135.919 88.0938 135.646 88.1228 135.338C89.5568 120.004 92.2408 79.177 87.5118 74.463C87.1648 74.117 86.8828 74.101 86.6988 74.118C80.5778 74.71 74.1468 104.841 72.1848 116.401C72.1328 116.706 71.8428 116.913 71.5388 116.86C71.2338 116.808 71.0278 116.519 71.0798 116.214C71.0978 116.109 72.8968 105.573 75.6388 95.079C79.4288 80.571 83.0118 73.349 86.5908 73.003C87.2108 72.943 87.8048 73.173 88.3028 73.67C94.3718 79.72 89.4508 133.171 89.2388 135.444C89.2118 135.733 88.9678 135.95 88.6818 135.95Z" fill="#412945"/>
<path d="M98.055 190.593C97.76 190.597 97.461 190.597 97.166 190.597C72.706 190.597 50.444 181.202 33.791 165.82L35.757 160.166L97.873 167.61L98.055 190.593Z" fill="#F7EDE5"/>
<path d="M144.278 164.494H117.677C117.26 164.494 116.923 164.157 116.923 163.74V139.963C116.923 139.546 117.261 139.209 117.677 139.209H144.278C144.695 139.209 145.032 139.547 145.032 139.963V163.74C145.032 164.156 144.694 164.494 144.278 164.494Z" fill="#6E72FF"/>
<path d="M141.281 161.976H120.673C120.169 161.976 119.759 161.566 119.759 161.062V142.641C119.759 142.137 120.169 141.727 120.673 141.727H141.281C141.785 141.727 142.195 142.137 142.195 142.641V161.062C142.196 161.566 141.785 161.976 141.281 161.976ZM120.673 142.386C120.533 142.386 120.419 142.5 120.419 142.64V161.061C120.419 161.201 120.533 161.315 120.673 161.315H141.281C141.421 161.315 141.535 161.201 141.535 161.061V142.64C141.535 142.5 141.421 142.386 141.281 142.386H120.673Z" fill="#412945"/>
<path d="M136.868 157.451H125.086C124.902 157.451 124.752 157.301 124.752 157.117V146.585C124.752 146.401 124.902 146.251 125.086 146.251H136.868C137.053 146.251 137.202 146.4 137.202 146.585V157.117C137.202 157.301 137.053 157.451 136.868 157.451Z" fill="#412945"/>
<path d="M125.311 129.982C124.276 129.982 123.437 130.821 123.437 131.856C123.437 132.72 124.024 133.439 124.819 133.657V139.977C124.819 140.217 125.014 140.412 125.254 140.412C125.494 140.412 125.689 140.217 125.689 139.977V133.692C126.543 133.517 127.185 132.762 127.185 131.856C127.185 130.821 126.346 129.982 125.311 129.982Z" fill="#412945"/>
<path d="M130.99 129.982C129.955 129.982 129.116 130.821 129.116 131.856C129.116 132.761 129.758 133.517 130.612 133.692V139.977C130.612 140.217 130.807 140.412 131.047 140.412C131.287 140.412 131.482 140.217 131.482 139.977V133.657C132.277 133.44 132.864 132.72 132.864 131.856C132.864 130.821 132.025 129.982 130.99 129.982Z" fill="#412945"/>
<path d="M138.543 131.856C138.543 130.821 137.704 129.982 136.669 129.982C135.634 129.982 134.795 130.821 134.795 131.856C134.795 132.8 135.496 133.574 136.404 133.703V139.976C136.404 140.216 136.599 140.411 136.839 140.411C137.079 140.411 137.274 140.216 137.274 139.976V133.621C138.01 133.368 138.543 132.678 138.543 131.856Z" fill="#412945"/>
<path d="M137.16 169.692V163.372C137.16 163.132 136.965 162.937 136.725 162.937C136.485 162.937 136.29 163.132 136.29 163.372V169.657C135.436 169.832 134.794 170.587 134.794 171.493C134.794 172.528 135.633 173.367 136.668 173.367C137.703 173.367 138.542 172.528 138.542 171.493C138.543 170.629 137.955 169.909 137.16 169.692Z" fill="#412945"/>
<path d="M131.368 169.657V163.372C131.368 163.132 131.173 162.937 130.933 162.937C130.693 162.937 130.498 163.132 130.498 163.372V169.692C129.703 169.909 129.116 170.629 129.116 171.492C129.116 172.527 129.955 173.366 130.99 173.366C132.025 173.366 132.864 172.527 132.864 171.492C132.864 170.588 132.222 169.832 131.368 169.657Z" fill="#412945"/>
<path d="M125.576 169.646V163.373C125.576 163.133 125.381 162.938 125.141 162.938C124.901 162.938 124.706 163.133 124.706 163.373V169.728C123.97 169.981 123.437 170.671 123.437 171.493C123.437 172.528 124.276 173.367 125.311 173.367C126.346 173.367 127.185 172.528 127.185 171.493C127.185 170.549 126.485 169.775 125.576 169.646Z" fill="#412945"/>
<path d="M118.327 146.49H107.795V144.627C108.75 144.49 109.486 143.677 109.486 142.685C109.486 141.597 108.604 140.715 107.516 140.715C106.428 140.715 105.546 141.597 105.546 142.685C105.546 143.574 106.139 144.317 106.948 144.562V146.913C106.948 147.147 107.137 147.336 107.371 147.336H118.327C118.561 147.336 118.75 147.147 118.75 146.913C118.75 146.679 118.561 146.49 118.327 146.49Z" fill="#412945"/>
<path d="M118.134 151.775H110.721C110.65 150.751 109.806 149.94 108.764 149.94C107.676 149.94 106.794 150.822 106.794 151.91C106.794 152.998 107.676 153.88 108.764 153.88C109.6 153.88 110.311 153.357 110.596 152.622H118.133C118.367 152.622 118.556 152.433 118.556 152.199C118.558 151.965 118.368 151.775 118.134 151.775Z" fill="#412945"/>
<path d="M117.75 156.676H108.347C108.038 155.992 107.353 155.514 106.554 155.514C105.466 155.514 104.584 156.396 104.584 157.484C104.584 158.572 105.466 159.454 106.554 159.454C107.629 159.454 108.499 158.593 108.52 157.523H117.749C117.983 157.523 118.172 157.334 118.172 157.1C118.173 156.866 117.984 156.676 117.75 156.676Z" fill="#412945"/>
<path d="M154.722 147.336C154.956 147.336 155.145 147.147 155.145 146.913V144.562C155.954 144.317 156.548 143.574 156.548 142.685C156.548 141.597 155.666 140.715 154.578 140.715C153.49 140.715 152.608 141.597 152.608 142.685C152.608 143.677 153.344 144.49 154.299 144.627V146.49H143.767C143.533 146.49 143.344 146.679 143.344 146.913C143.344 147.147 143.533 147.336 143.767 147.336H154.722Z" fill="#412945"/>
<path d="M155.539 155.514C154.74 155.514 154.055 155.992 153.746 156.676H144.344C144.11 156.676 143.921 156.865 143.921 157.099C143.921 157.333 144.11 157.522 144.344 157.522H153.573C153.594 158.592 154.464 159.453 155.539 159.453C156.627 159.453 157.509 158.571 157.509 157.483C157.509 156.396 156.627 155.514 155.539 155.514Z" fill="#412945"/>
<path d="M151.497 152.622C151.783 153.357 152.493 153.88 153.329 153.88C154.417 153.88 155.299 152.998 155.299 151.91C155.299 150.822 154.417 149.94 153.329 149.94C152.287 149.94 151.443 150.751 151.372 151.775H143.959C143.725 151.775 143.536 151.964 143.536 152.198C143.536 152.432 143.726 152.621 143.959 152.621H151.497V152.622Z" fill="#412945"/>
<path d="M89.2596 18.399L96.3465 20.872C96.7605 21.017 96.7676 21.599 96.3576 21.754L89.2496 24.431C89.1236 24.479 89.0235 24.578 88.9755 24.704L86.2825 31.857C86.1305 32.262 85.5576 32.262 85.4046 31.857L82.7116 24.704C82.6636 24.578 82.5645 24.478 82.4375 24.431L75.3456 21.76C74.9336 21.605 74.9435 21.019 75.3595 20.877L82.6516 18.4C82.7896 18.353 82.8976 18.245 82.9446 18.107L85.4155 10.832C85.5575 10.413 86.1475 10.406 86.2995 10.822L88.9736 18.118C89.0226 18.25 89.1276 18.353 89.2596 18.399Z" fill="#F7EDE5"/>
<path d="M161.448 43.681L168.535 46.155C168.949 46.299 168.956 46.882 168.546 47.037L161.438 49.714C161.312 49.762 161.212 49.861 161.164 49.988L158.471 57.141C158.319 57.546 157.746 57.546 157.593 57.141L154.9 49.988C154.852 49.862 154.753 49.762 154.626 49.714L147.534 47.043C147.122 46.888 147.132 46.302 147.548 46.16L154.84 43.683C154.978 43.636 155.086 43.528 155.133 43.39L157.604 36.115C157.746 35.696 158.336 35.689 158.488 36.104L161.162 43.4C161.21 43.532 161.315 43.635 161.448 43.681Z" fill="#F7EDE5"/>
<path d="M167.144 131.82L174.231 134.293C174.645 134.438 174.652 135.02 174.242 135.175L167.134 137.852C167.008 137.9 166.908 137.999 166.86 138.125L164.167 145.278C164.015 145.683 163.442 145.683 163.289 145.278L160.596 138.125C160.548 137.999 160.449 137.899 160.322 137.852L153.23 135.181C152.818 135.026 152.828 134.44 153.244 134.298L160.536 131.821C160.674 131.774 160.782 131.666 160.829 131.528L163.3 124.253C163.442 123.834 164.032 123.827 164.184 124.243L166.858 131.539C166.907 131.67 167.012 131.773 167.144 131.82Z" fill="#F7EDE5"/>
<path d="M34.8968 140.697L41.9838 143.171C42.3978 143.316 42.4048 143.898 41.9948 144.053L34.8868 146.73C34.7608 146.778 34.6608 146.877 34.6128 147.004L31.9197 154.157C31.7677 154.562 31.1948 154.562 31.0418 154.157L28.3488 147.004C28.3008 146.878 28.2017 146.778 28.0747 146.73L20.9828 144.059C20.5708 143.904 20.5808 143.318 20.9968 143.176L28.2888 140.699C28.4268 140.652 28.5348 140.544 28.5818 140.406L31.0528 133.131C31.1948 132.712 31.7848 132.705 31.9368 133.121L34.6108 140.417C34.6598 140.547 34.7648 140.65 34.8968 140.697Z" fill="#F7EDE5"/>
</svg>
