<svg width="195" height="195" viewBox="0 0 195 195" fill="none" xmlns="http://www.w3.org/2000/svg">
<path d="M97.166 194.334C84.502 194.334 72.194 191.936 60.581 187.206C60.55 187.194 60.518 187.182 60.487 187.169C44.063 180.469 29.766 169.374 19.14 155.083C8.318 140.527 1.813 123.289 0.330002 105.231C0.111002 102.55 0 99.837 0 97.167C0 81.595 3.574 66.717 10.624 52.947C17.346 39.816 27.157 28.19 38.996 19.327C55.887 6.683 76.002 0 97.166 0C106.725 0 116.168 1.385 125.231 4.117C141.044 8.879 155.503 17.708 167.043 29.65C178.606 41.616 186.941 56.401 191.146 72.408C193.261 80.447 194.333 88.778 194.333 97.167C194.333 112.69 190.582 128.132 183.485 141.823C176.619 155.069 166.615 166.743 154.555 175.582C137.823 187.85 117.978 194.334 97.166 194.334Z" fill="white"/>
<path d="M171.027 90.989C171.027 99.222 172.454 102.853 170.455 110.454C170.178 111.512 170.387 114.373 170.073 115.416C168.851 119.482 163.609 117.902 161.867 121.714C161.531 122.454 152.684 130.527 152.325 131.256C148.775 138.517 173.128 152.161 167.892 158.215C163.703 163.066 159.02 167.483 153.926 171.389C153.461 171.745 151.929 172.258 151.459 172.604C151.154 172.828 151.913 172.888 151.606 173.109C136.276 184.119 117.478 190.599 97.1668 190.599C96.3748 190.599 95.5818 190.588 94.7978 190.565C77.3898 190.133 73.7538 160.57 59.9628 151.867C46.1718 143.165 40.4938 149.293 32.8288 134.826C32.4328 134.079 26.8708 124.993 26.4978 124.231C21.4868 114.122 8.77977 117.207 7.72977 105.431C7.73677 105.566 7.71877 105.297 7.72977 105.431C7.70377 105.155 4.02977 104.607 4.01177 104.334C3.82877 101.968 3.73877 99.58 3.73877 97.17C3.73877 85.716 5.80177 74.739 9.57277 64.601C14.1518 52.292 47.8228 73.792 56.8148 64.562C70.4068 50.61 61.7528 8.309 81.8308 4.993C86.8198 4.171 91.9438 3.741 97.1678 3.741C124.479 3.741 149.055 15.461 166.138 34.143C168.906 37.169 157.748 51.345 160.102 54.717C162.547 58.219 178.486 50.93 180.44 54.761C182.447 58.696 184.185 62.789 185.623 67.019C188.847 76.474 171.027 80.439 171.027 90.989Z" fill="#6E72FF"/>
<path d="M100.036 168.611C100.036 176.512 98.1489 183.971 94.7959 190.563C59.9799 189.7 29.8889 169.788 14.5589 140.855C14.1629 140.108 13.7739 139.353 13.3999 138.59C22.2829 127.322 36.0549 120.091 51.5149 120.091C78.3119 120.091 100.036 141.815 100.036 168.611Z" fill="#F8BDFF"/>
<path d="M104.618 46.525C104.618 73.717 82.5718 95.759 55.3808 95.759C34.5718 95.759 16.7758 82.851 9.5708 64.599C21.0698 33.685 48.4678 10.499 81.8288 4.991C95.5288 13.731 104.618 29.068 104.618 46.525Z" fill="#F8BDFF"/>
<path d="M190.596 97.167C190.596 105.4 189.531 113.383 187.532 120.984C187.385 121.546 186.484 122.841 186.326 123.399C186.187 123.891 186.793 123.646 186.646 124.135C185.424 128.201 183.929 132.148 182.188 135.959C181.999 136.374 180.765 137.268 180.57 137.68C180.417 138.003 181.303 137.844 181.145 138.164C177.595 145.425 173.129 152.16 167.893 158.214C165.554 158.558 163.158 158.733 160.721 158.733C133.529 158.733 111.487 136.691 111.487 109.499C111.487 82.307 133.529 60.265 160.721 60.265C169.806 60.265 178.316 62.724 185.622 67.014C188.847 76.474 190.596 86.617 190.596 97.167Z" fill="#F8BDFF"/>
<path d="M152.506 171.758C145.562 173.451 136.634 173.402 130.09 169.064C132.747 167.054 135.416 164.34 136.451 160.76C137.221 158.099 136.657 154.885 135.012 152.568C133.711 150.733 131.888 149.66 129.885 149.552C126.264 149.365 122.784 152.43 122.13 156.41C121.592 159.717 122.821 163.402 125.508 166.519C126.33 167.468 127.22 168.313 128.169 169.06C127.575 169.464 126.992 169.833 126.446 170.17C120.298 173.948 115.115 174.965 111.049 173.197C105.477 170.779 103.53 163.787 103.563 158.054C103.597 152.284 105.062 146.559 107.7 141.435C109.841 137.268 112.76 133.505 116.31 130.44L115.578 129.592C111.572 133.049 108.346 137.365 106.1 142.149C103.764 147.108 102.475 152.557 102.441 158.047C102.404 164.139 104.53 171.587 110.603 174.229C112.038 174.849 113.589 175.163 115.252 175.163C118.713 175.163 122.655 173.814 127.035 171.127C127.693 170.72 128.399 170.268 129.12 169.763C135.641 174.278 144.469 174.61 151.603 173.108C152.384 172.547 153.158 171.976 153.924 171.389C153.456 171.519 152.981 171.642 152.506 171.758ZM126.357 165.786C123.887 162.923 122.751 159.571 123.24 156.589C123.715 153.67 126.338 150.662 129.545 150.662C129.635 150.662 129.728 150.666 129.825 150.669C131.481 150.763 132.998 151.667 134.097 153.218C135.551 155.266 136.055 158.103 135.375 160.446C134.388 163.862 131.731 166.463 129.126 168.384C128.133 167.628 127.206 166.769 126.357 165.786Z" fill="#FFC063"/>
<path d="M175.165 141.931C173.965 143.041 172.725 144.184 171.473 145.261C165.665 150.25 160.433 152.522 155.474 152.212C151.214 151.943 147.05 149.611 144.334 145.975C144.199 145.796 144.072 145.616 143.949 145.437C147.735 143.837 150.747 140.938 152.032 137.305C152.914 134.809 152.761 131.471 150.339 130.044C149.008 129.259 147.196 129.27 145.488 130.07C142.689 131.385 140.742 134.435 140.529 137.84C140.383 140.142 140.993 142.567 142.263 144.84C140.346 145.479 138.275 145.774 136.183 145.647C131.657 145.367 126.321 142.908 124.613 138.045C124.172 136.786 124.008 135.481 124.041 134.136C124.097 131.438 124.942 128.59 125.895 125.686L124.83 125.335C123.967 127.97 122.868 131.307 122.92 134.637C122.939 135.911 123.125 137.182 123.555 138.415C125.435 143.763 131.216 146.461 136.116 146.764C138.467 146.91 140.769 146.573 142.877 145.848C143.053 146.117 143.24 146.382 143.438 146.644C146.345 150.546 150.823 153.042 155.404 153.33C155.725 153.349 156.051 153.36 156.376 153.36C161.346 153.36 166.537 150.983 172.203 146.11C173.47 145.023 174.718 143.872 175.929 142.754C177.614 141.196 179.33 139.611 181.146 138.165C181.505 137.436 181.852 136.7 182.189 135.96C179.679 137.757 177.396 139.868 175.165 141.931ZM143.324 144.443C142.102 142.317 141.511 140.048 141.646 137.91C141.837 134.905 143.529 132.226 145.966 131.086C146.68 130.75 147.409 130.581 148.089 130.581C148.709 130.581 149.285 130.723 149.771 131.007C151.561 132.065 151.733 134.789 150.974 136.93C149.797 140.261 146.908 142.963 143.324 144.443Z" fill="#E36352"/>
<path d="M186.384 122.576C185.016 124.493 183.596 126.474 181.933 128.167C177.613 132.562 171.529 134.614 166.435 133.403C162.948 132.57 160.041 130.006 158.583 126.953C161.281 125.679 163.561 123.519 164.805 120.787C165.003 120.346 165.216 119.819 165.257 119.24C165.328 118.268 164.879 117.327 164.027 116.654C163.922 116.572 163.814 116.493 163.702 116.422C162.723 115.798 161.478 115.607 160.436 115.94C158.956 116.411 157.756 117.663 157.069 119.386C156.901 119.805 156.763 120.249 156.662 120.72C156.251 122.604 156.438 124.551 157.092 126.374C155.01 127.14 152.727 127.346 150.552 126.841C148.788 126.434 147.17 125.574 145.806 124.416C143.138 122.136 141.441 118.694 141.542 115.159L140.421 115.125C140.316 118.821 142.002 122.424 144.696 124.913C146.273 126.371 148.19 127.443 150.298 127.933C152.701 128.494 155.224 128.258 157.518 127.402C159.095 130.769 162.275 133.565 166.177 134.495C167.268 134.753 168.389 134.88 169.522 134.88C174.156 134.88 178.988 132.761 182.733 128.953C184.194 127.469 185.45 125.799 186.646 124.136C186.96 123.093 187.255 122.043 187.532 120.986C187.143 121.515 186.761 122.049 186.384 122.576ZM157.757 120.958C157.921 120.192 158.243 119.358 158.732 118.641C159.233 117.897 159.913 117.284 160.78 117.008C161.008 116.937 161.251 116.9 161.505 116.9C161.782 116.9 162.066 116.941 162.342 117.027H162.346C162.705 117.131 163.045 117.303 163.336 117.535C163.661 117.793 164.199 118.346 164.139 119.157C164.109 119.561 163.945 119.972 163.784 120.319C162.655 122.801 160.593 124.759 158.152 125.925C157.574 124.307 157.402 122.591 157.757 120.958Z" fill="#B5E1E8"/>
<path d="M180.438 54.758L169.35 113.899L163.703 116.422L162.346 117.027H162.342L158.732 118.641L157.069 119.385L145.805 124.415L144.695 124.912L124.04 134.135L122.919 134.636L107.701 141.434L106.101 142.148L97.0375 146.195L96.3615 146.498C96.3615 146.498 96.1635 146.423 95.7895 146.281C93.4915 145.414 84.5185 142.021 73.7925 137.973C72.8095 137.603 71.8155 137.226 70.8065 136.844H70.8025C68.9605 136.149 67.0805 135.439 65.1895 134.729C47.1055 127.909 27.8025 120.662 27.4775 120.662L30.6425 119.133L30.9075 119.006H30.9115L31.2255 118.853L31.5025 118.718L32.0595 118.449L35.7925 116.648L37.3025 115.919L38.0645 115.553L51.7685 108.938L52.3025 108.68L53.5505 108.078L86.5195 92.165L105.587 98.002L106.611 98.316L116.245 48.496L116.824 48.328L166.132 34.138C171.779 40.31 176.604 47.239 180.438 54.758Z" fill="#412945"/>
<path d="M116.828 48.33C116.768 48.124 116.596 47.956 116.368 47.908C116.043 47.841 115.725 48.054 115.658 48.379L105.59 98.005L105.041 100.715L88.3505 95.285C88.2005 95.236 88.0405 95.248 87.8985 95.319L59.8995 109.023C59.8365 109.042 59.7765 109.068 59.7235 109.109L59.3195 109.307L58.4745 109.718L57.6265 110.136L43.8405 116.878L42.6075 117.483L42.1665 117.7L39.3075 119.098C39.0945 119.206 38.9635 119.427 38.9715 119.666C38.9825 119.905 39.1325 120.115 39.3565 120.2L96.5575 142.343C96.5685 142.347 96.5795 142.347 96.5915 142.351L95.7915 146.283L95.7725 146.38C95.7055 146.705 95.9185 147.023 96.2435 147.086C96.2845 147.097 96.3255 147.101 96.3635 147.101C96.6435 147.101 96.8945 146.903 96.9545 146.619L97.0405 146.197L116.841 48.619C116.857 48.521 116.854 48.42 116.828 48.33ZM88.2075 96.506L96.2875 99.133L90.3975 101.988L82.9685 99.069L88.2075 96.506ZM79.2795 117.827L69.8735 123.164L58.6765 118.702L68.9235 113.735L79.2795 117.827ZM70.3965 113.02L80.1655 108.289L89.6245 111.959L80.6255 117.06L70.3965 113.02ZM80.7185 118.394L90.1475 122.116L80.5915 127.43L71.3085 123.734L80.7185 118.394ZM82.0675 117.628L91.0745 112.519L100.691 116.252L91.5085 121.357L82.0675 117.628ZM90.9765 111.189L81.6445 107.571L90.4495 103.303L98.9775 106.648L90.9765 111.189ZM81.5745 99.753C81.6345 99.817 81.7055 99.869 81.7915 99.903L88.9255 102.702L80.1135 106.974L72.6985 104.096L81.5745 99.753ZM71.2255 104.817L78.6285 107.691L68.8745 112.422L61.5755 109.541L71.2255 104.817ZM58.2015 111.189L59.0425 110.778L59.5135 110.546L60.1115 110.254L67.4025 113.135L57.1585 118.098L55.6675 117.504L54.9385 117.213L54.2655 116.948L49.9525 115.229L58.2015 111.189ZM48.3245 122.382L41.0745 119.575L43.9825 118.151L44.3525 117.972L45.7275 117.299L48.4965 115.942L52.5735 117.568L53.3955 117.893L54.3145 118.259L55.6935 118.808L48.3315 122.377C48.3285 122.378 48.3285 122.382 48.3245 122.382ZM49.8605 122.976L57.2075 119.415L68.5315 123.926L61.9505 127.656L49.8605 122.976ZM63.4045 128.22L69.9635 124.494L79.2355 128.19L72.7065 131.819L63.4045 128.22ZM85.0985 136.617L74.1675 132.387L80.6775 128.762L91.0515 132.895L85.1765 136.554C85.1505 136.572 85.1245 136.595 85.0985 136.617ZM96.8295 141.158L86.4925 137.155L92.4425 133.448L97.7795 135.574C97.8395 135.596 97.8995 135.608 97.9585 135.611L96.8295 141.158ZM98.1935 134.442L93.7085 132.656L99.2585 129.199L98.1935 134.442ZM99.5725 127.655C99.4865 127.662 99.4005 127.689 99.3255 127.737L92.3185 132.102L82.0375 128.006L91.5975 122.688L99.8305 125.939C99.8605 125.95 99.8865 125.958 99.9165 125.961L99.5725 127.655ZM100.156 124.774L92.9575 121.93L101.722 117.057L100.156 124.774ZM102.043 115.483L92.4265 111.753L100.421 107.216L103.474 108.416L102.043 115.483ZM103.721 107.217L101.77 106.451L104.147 105.102L103.721 107.217ZM104.465 103.539L100.328 105.886L91.9265 102.586L97.9245 99.678C97.9285 99.678 97.9325 99.674 97.9395 99.67L104.798 101.901L104.465 103.539Z" fill="#6E72FF"/>
<path d="M134.046 81.543L131.739 95.387C131.689 95.69 131.983 95.935 132.271 95.831L158.664 86.306C158.805 86.255 158.905 86.131 158.926 85.983L160.652 73.325C160.692 73.032 160.412 72.798 160.131 72.889L134.319 81.228C134.176 81.273 134.07 81.395 134.046 81.543Z" fill="#6E72FF"/>
<path d="M66.9137 140.978C66.6107 140.937 66.2897 140.888 65.9527 140.825C65.9527 140.825 65.8257 141.064 65.5307 141.393C64.6037 142.421 62.0177 144.331 56.5207 142.466C56.5207 142.466 54.7417 142.552 52.3537 142.75C51.9497 142.784 51.5277 142.821 51.0907 142.862C49.5467 143.008 47.8547 143.191 46.2697 143.423C45.5037 143.535 44.7337 143.733 43.9527 143.972C39.9877 145.202 35.8017 147.552 31.2347 145.609C29.0337 144.671 22.0787 142.78 14.5597 140.855C8.88666 130.156 5.23566 118.223 4.10666 105.561C4.09566 105.426 4.08466 105.292 4.07666 105.157C9.24466 105.632 15.8977 106.028 19.8927 105.426C27.1357 104.331 27.4087 103.236 33.8327 105.015C37.7567 106.099 46.2737 107.646 52.3057 108.681C55.1837 109.178 57.4967 109.555 58.4757 109.716C58.8047 109.768 58.9837 109.798 58.9837 109.798C58.9837 109.798 59.0547 110.175 59.0437 110.777C59.0247 112.313 58.4867 115.314 54.9407 117.213C54.4807 117.463 53.9657 117.691 53.3977 117.893C53.3007 117.93 53.2037 117.964 53.1057 117.998C50.0977 119.003 47.0847 118.656 44.3537 117.972C43.7557 117.819 43.1727 117.654 42.6087 117.482C40.5977 116.877 38.7897 116.196 37.3057 115.92C36.6777 115.8 36.1137 115.756 35.6127 115.812C33.1877 116.092 31.7147 117.266 31.0267 117.983C30.7057 118.316 30.5557 118.547 30.5557 118.547L31.2287 118.854L31.3187 118.895L70.8097 136.845L72.6517 137.682C72.6497 137.682 74.0327 141.954 66.9137 140.978Z" fill="#FF9582"/>
<path d="M73.7948 137.613C73.7708 137.402 73.6378 137.219 73.4438 137.132L31.8768 118.369L31.8778 118.368C33.1298 117.24 34.4118 116.753 35.7938 116.649C37.5948 116.515 39.5718 117.027 41.8928 117.628C41.9828 117.65 42.0718 117.677 42.1658 117.699C42.7528 117.852 43.3578 118.005 43.9818 118.151C45.8768 118.603 47.9508 118.984 50.2268 119.011H50.3838C51.9418 119.011 53.2388 118.727 54.3148 118.26C54.8118 118.047 55.2608 117.789 55.6678 117.505C58.5378 115.506 59.3118 112.049 59.5138 110.546C59.5738 110.101 59.5848 109.828 59.5848 109.813C59.5888 109.604 59.4878 109.409 59.3198 109.305C59.2558 109.257 59.1818 109.223 59.1028 109.208C59.0358 109.193 56.7748 108.73 53.5528 108.08C46.6538 106.671 35.3488 104.384 31.7538 103.737C28.4538 103.147 25.4458 103.67 22.2618 104.227C20.1168 104.601 17.8928 104.989 15.3558 105.098C12.6048 105.218 8.15777 104.821 4.00977 104.332C4.02877 104.605 4.05076 104.881 4.07676 105.158C4.08376 105.292 4.09576 105.427 4.10676 105.562C8.22176 106.037 12.6158 106.418 15.4078 106.302C18.0238 106.19 20.2848 105.797 22.4708 105.416C25.6808 104.856 28.4538 104.37 31.5408 104.926C34.8708 105.52 44.8418 107.535 51.7698 108.94C54.2698 109.448 56.3778 109.878 57.6258 110.136C57.9098 110.192 58.1488 110.244 58.3398 110.282C58.3138 110.521 58.2728 110.831 58.2018 111.19C57.8688 112.857 56.9278 115.574 54.2668 116.949C53.7658 117.207 53.2058 117.42 52.5738 117.569C51.9198 117.722 51.1908 117.808 50.3798 117.808H50.2418C48.6498 117.789 47.1438 117.584 45.7268 117.3C45.0808 117.173 44.4488 117.027 43.8398 116.878C43.2758 116.743 42.7258 116.601 42.1958 116.463C40.7608 116.089 39.3858 115.734 38.0658 115.555C35.4308 115.196 33.0058 115.533 30.6888 117.831L30.6868 117.833L29.1598 117.144C28.8558 117.007 28.4998 117.142 28.3628 117.445C28.2258 117.748 28.3608 118.105 28.6638 118.242L72.5678 138.06C72.5178 138.309 72.3848 138.67 72.0368 139.027C71.3828 139.697 69.8668 140.457 66.3598 140.259C59.2638 139.859 35.8288 130.453 35.5938 130.358C35.2838 130.234 34.9348 130.383 34.8098 130.692C34.6858 131 34.8348 131.351 35.1438 131.476C36.0688 131.848 56.8998 140.208 65.1668 141.348C60.5358 145.289 39.4468 139.088 31.2648 136.192C30.9508 136.082 30.6068 136.245 30.4958 136.559C30.3848 136.872 30.5488 137.217 30.8628 137.328C30.9418 137.356 38.8848 140.155 47.1768 142.05C48.0738 142.255 48.9388 142.441 49.7768 142.61C44.8868 143.43 33.5428 141.797 29.0178 140.986C28.6918 140.926 28.3778 141.145 28.3188 141.472C28.2598 141.799 28.4778 142.112 28.8048 142.171C29.3728 142.273 39.2698 144.029 46.2008 144.029C48.7818 144.029 50.9518 143.785 52.0758 143.122C52.1088 143.103 52.1378 143.08 52.1658 143.056C55.0468 143.549 57.5248 143.797 59.5878 143.797C63.2428 143.797 65.6068 143.023 66.6558 141.478C66.9248 141.489 67.1878 141.496 67.4418 141.496C70.0448 141.496 71.8908 140.936 72.9378 139.827C73.9168 138.791 73.7998 137.66 73.7948 137.613Z" fill="#412945"/>
<path d="M31.5696 34.502H107.488C108.115 34.502 108.624 35.09 108.624 35.815V75.455C108.624 76.18 108.115 76.768 107.488 76.768H92.0706L96.6966 84.119L84.5046 76.768H31.5696C30.9416 76.768 30.4336 76.18 30.4336 75.455V35.815C30.4336 35.09 30.9426 34.502 31.5696 34.502Z" fill="#F7EDE5"/>
<path d="M82.1726 68.9C81.8816 68.9 81.5916 68.787 81.3716 68.563C80.9386 68.121 80.9456 67.411 81.3886 66.977L92.7846 55.818L80.8786 44.15C80.4366 43.717 80.4286 43.007 80.8626 42.564C81.2956 42.122 82.0056 42.114 82.4486 42.548L95.1715 55.017C95.3865 55.228 95.5086 55.517 95.5086 55.818C95.5086 56.119 95.3875 56.408 95.1715 56.619L82.9576 68.579C82.7386 68.793 82.4556 68.9 82.1726 68.9Z" fill="#412945"/>
<path d="M56.7896 69.281C56.5066 69.281 56.2236 69.175 56.0046 68.961L43.7906 57.001C43.5756 56.79 43.4536 56.501 43.4536 56.2C43.4536 55.899 43.5746 55.61 43.7896 55.399L56.5126 42.93C56.9546 42.496 57.6646 42.504 58.0986 42.946C58.5316 43.388 58.5246 44.098 58.0826 44.532L46.1776 56.2L57.5746 67.359C58.0166 67.792 58.0246 68.502 57.5916 68.945C57.3706 69.169 57.0806 69.281 56.7896 69.281Z" fill="#412945"/>
<path d="M63.5864 69.787C63.4684 69.787 63.3484 69.764 63.2324 69.717C62.7554 69.522 62.5264 68.976 62.7214 68.499L73.0264 43.309C73.2224 42.831 73.7674 42.602 74.2454 42.798C74.7224 42.993 74.9514 43.539 74.7564 44.016L64.4514 69.206C64.3034 69.568 63.9544 69.787 63.5864 69.787Z" fill="#412945"/>
<path d="M127.295 24.812L133.182 26.867C133.526 26.987 133.532 27.471 133.191 27.599L127.286 29.823C127.181 29.863 127.098 29.945 127.059 30.05L124.822 35.992C124.695 36.328 124.219 36.328 124.093 35.992L121.855 30.05C121.815 29.945 121.733 29.862 121.628 29.823L115.736 27.604C115.394 27.475 115.402 26.988 115.748 26.871L121.806 24.813C121.921 24.774 122.011 24.684 122.049 24.569L124.102 18.526C124.22 18.178 124.71 18.172 124.837 18.517L127.058 24.578C127.098 24.688 127.185 24.773 127.295 24.812Z" fill="#F7EDE5"/>
<path d="M177.413 110.893L183.3 112.948C183.644 113.068 183.65 113.552 183.309 113.68L177.404 115.904C177.299 115.944 177.216 116.026 177.177 116.131L174.94 122.073C174.813 122.409 174.337 122.409 174.211 122.073L171.973 116.131C171.934 116.026 171.851 115.943 171.746 115.904L165.854 113.685C165.512 113.556 165.52 113.069 165.866 112.952L171.924 110.894C172.039 110.855 172.129 110.765 172.168 110.65L174.221 104.607C174.339 104.259 174.829 104.253 174.956 104.598L177.177 110.659C177.216 110.769 177.303 110.855 177.413 110.893Z" fill="#F7EDE5"/>
<path d="M22.9936 80.569L28.8806 82.624C29.2246 82.744 29.2307 83.228 28.8897 83.356L22.9846 85.58C22.8796 85.619 22.7966 85.702 22.7576 85.807L20.5206 91.749C20.3936 92.085 19.9177 92.085 19.7917 91.749L17.5547 85.807C17.5147 85.702 17.4326 85.619 17.3276 85.58L11.4356 83.361C11.0936 83.232 11.1016 82.745 11.4476 82.627L17.5056 80.569C17.6206 80.53 17.7107 80.44 17.7497 80.325L19.8026 74.282C19.9206 73.934 20.4106 73.928 20.5376 74.273L22.7586 80.334C22.7966 80.445 22.8836 80.53 22.9936 80.569Z" fill="#F7EDE5"/>
<path d="M78.8238 159.923L84.7107 161.978C85.0547 162.098 85.0607 162.582 84.7197 162.71L78.8147 164.934C78.7097 164.973 78.6268 165.056 78.5878 165.161L76.3508 171.103C76.2238 171.44 75.7477 171.44 75.6217 171.103L73.3837 165.161C73.3447 165.056 73.2618 164.973 73.1568 164.934L67.2648 162.715C66.9228 162.586 66.9307 162.099 67.2767 161.981L73.3348 159.923C73.4498 159.884 73.5397 159.794 73.5787 159.679L75.6318 153.636C75.7498 153.288 76.2398 153.282 76.3668 153.627L78.5878 159.688C78.6268 159.799 78.7138 159.884 78.8238 159.923Z" fill="#F7EDE5"/>
</svg>
