<svg width="195" height="195" viewBox="0 0 195 195" fill="none" xmlns="http://www.w3.org/2000/svg">
<path d="M97.166 194.334C84.502 194.334 72.194 191.936 60.581 187.206C60.55 187.194 60.518 187.182 60.487 187.169C44.063 180.47 29.766 169.374 19.14 155.083C8.318 140.527 1.813 123.289 0.330002 105.231C0.111002 102.55 0 99.837 0 97.167C0 81.595 3.574 66.717 10.624 52.947C17.346 39.816 27.157 28.19 38.996 19.327C55.887 6.683 76.002 0 97.166 0C106.725 0 116.168 1.385 125.231 4.117C141.044 8.879 155.503 17.708 167.043 29.65C178.606 41.616 186.941 56.401 191.146 72.408C193.261 80.447 194.333 88.778 194.333 97.167C194.333 112.69 190.582 128.132 183.485 141.823C176.619 155.069 166.615 166.743 154.555 175.582C137.823 187.85 117.978 194.334 97.166 194.334Z" fill="white"/>
<path d="M143.505 97.468C143.505 104.826 189.097 111.683 187.473 118.548V118.552C184.403 131.589 178.575 143.557 170.648 153.825C153.682 175.8 128.717 164.097 98.8079 164.097C68.8989 164.097 40.6489 175.8 23.6829 153.825C16.3069 144.274 10.7509 133.242 7.53991 121.255C7.49491 121.09 9.01891 120.327 8.97591 120.163C8.92591 119.973 7.30991 120.384 7.26091 120.193C5.84391 114.648 4.92691 108.903 4.56091 103.013C4.54891 102.831 6.21791 101.876 6.20691 101.694C6.19491 101.492 4.5049 102.063 4.4949 101.861C4.4189 100.306 4.37891 98.74 4.37891 97.167C4.37891 96.185 4.3939 95.206 4.4259 94.231C4.4319 93.972 6.1649 92.358 6.1759 92.1C6.1839 91.899 4.4689 93.055 4.4809 92.854C5.1909 77.29 9.73991 62.724 17.1989 50.081C23.5649 39.293 61.2889 67.125 71.3239 59.711C84.3989 50.05 70.8649 6.52101 87.9269 4.83301C90.9639 4.53201 94.0489 4.38 97.1659 4.38C123.73 4.38 147.687 15.543 164.599 33.434C180.315 50.057 143.505 72.789 143.505 97.468Z" fill="#6E72FF"/>
<path d="M107.601 42.315C107.601 67.462 87.2167 87.846 62.0697 87.846C39.5727 87.846 20.8847 71.529 17.1987 50.082C31.8597 25.236 57.7707 7.81701 87.9267 4.83401C99.8157 13.051 107.601 26.773 107.601 42.315Z" fill="#FFC063"/>
<path d="M189.953 97.168C189.953 104.526 189.098 111.684 187.474 118.549V118.553C180.838 122.33 173.161 124.49 164.977 124.49C139.83 124.49 119.446 104.106 119.446 78.963C119.446 53.943 139.627 33.635 164.6 33.436C180.315 50.057 189.953 72.489 189.953 97.168Z" fill="#FFC063"/>
<path d="M155.525 45.832H37.1715L29.1045 84.829L37.1715 129.203H88.5235L86.7545 141.978H82.8075L81.1265 148.365H122.349V141.978H114.844L116.938 129.203H155.525C156.068 129.203 156.512 128.762 156.512 128.215V46.82C156.512 46.276 156.068 45.832 155.525 45.832Z" fill="#412945"/>
<path d="M149.988 122.988H48.4028C47.9558 122.988 47.5938 122.626 47.5938 122.179V52.858C47.5938 52.411 47.9558 52.049 48.4028 52.049H149.988C150.435 52.049 150.797 52.411 150.797 52.858V122.179C150.797 122.625 150.435 122.988 149.988 122.988Z" fill="#B5E1E8"/>
<path d="M37.1717 45.832V129.203H26.7307C26.1847 129.203 25.7427 128.762 25.7427 128.215V46.82C25.7427 46.277 26.1837 45.832 26.7307 45.832H37.1717Z" fill="#F8BDFF"/>
<path d="M31.3528 62.395C31.3018 62.692 31.0198 62.891 30.7258 62.841C29.0038 62.555 27.3368 62.435 25.7418 62.479C23.0448 62.544 20.5628 63.081 18.4018 64.066C14.3928 65.896 11.5078 69.412 10.8698 73.24C10.5908 74.907 10.7138 76.578 10.8448 78.351C10.9388 79.612 11.0368 80.917 10.9718 82.215C10.7908 85.858 9.27178 89.493 6.80378 92.182C6.05678 92.998 5.25578 93.683 4.42578 94.233C4.43678 93.773 4.45478 93.316 4.47978 92.856C5.00578 92.45 5.51278 91.975 6.00178 91.446C8.30378 88.938 9.71678 85.556 9.88378 82.16C9.94578 80.931 9.85078 79.659 9.76078 78.431C9.63378 76.673 9.49978 74.857 9.79678 73.063C10.4928 68.884 13.6168 65.056 17.9518 63.078C20.2498 62.027 22.8888 61.462 25.7408 61.389C27.3968 61.349 29.1258 61.476 30.9018 61.77C31.2008 61.818 31.3998 62.097 31.3528 62.395Z" fill="#E36352"/>
<path d="M31.7366 73.583C31.6966 73.797 31.5376 73.953 31.3456 74.003C31.2696 74.025 31.1826 74.028 31.0996 74.014C29.3126 73.673 27.4426 73.927 25.7426 74.627C23.1296 75.707 20.9186 77.842 20.0306 80.491C19.2836 82.724 19.3206 85.275 19.3566 87.747C19.4106 91.375 19.4656 95.126 17.0116 97.892C14.9926 100.172 11.9916 100.911 9.08858 101.622C8.12858 101.858 7.13458 102.1 6.21058 102.394C5.63758 102.579 5.08658 102.786 4.56158 103.014C4.53658 102.63 4.51458 102.246 4.49658 101.861C4.94258 101.676 5.40658 101.509 5.88158 101.357C6.84158 101.052 7.85358 100.806 8.82858 100.567C11.6956 99.864 14.4066 99.197 16.2006 97.171C18.3716 94.721 18.3246 91.339 18.2706 87.762C18.2346 85.203 18.1946 82.554 19.0026 80.147C20.0536 77.005 22.6666 74.554 25.7436 73.438C27.5126 72.793 29.4366 72.59 31.3076 72.949C31.3986 72.964 31.4776 73.003 31.5436 73.058C31.6936 73.177 31.7736 73.38 31.7366 73.583Z" fill="#FFC063"/>
<path d="M32.1977 90.147C32.0197 90.39 31.6797 90.441 31.4367 90.263C31.0127 89.951 30.5197 89.796 30.0047 89.77C28.6387 89.694 27.0837 90.506 26.0427 91.648C25.9407 91.76 25.8397 91.876 25.7417 91.992C23.0847 95.189 22.6827 99.708 22.2987 104.083L22.2517 104.609C21.8237 109.43 20.8417 114.747 16.8327 117.643C15.1077 118.886 13.0557 119.481 11.0697 120.053L10.5227 120.212C9.55174 120.495 8.52174 120.817 7.53974 121.256C7.44174 120.901 7.35174 120.549 7.26074 120.194C8.24674 119.766 9.26174 119.447 10.2187 119.168L10.7697 119.008C12.6657 118.461 14.6257 117.895 16.1957 116.761C19.8527 114.122 20.7627 109.088 21.1687 104.51L21.2157 103.984C21.6147 99.49 22.0637 94.397 25.2387 90.914C25.3987 90.74 25.5647 90.573 25.7427 90.414C26.8777 89.395 28.3707 88.678 29.8057 88.667C30.6067 88.663 31.3897 88.877 32.0817 89.385C32.3207 89.564 32.3747 89.904 32.1977 90.147Z" fill="#B5E1E8"/>
<path d="M58.3688 62.118H54.1118V71.372H58.3688V62.118Z" fill="#F7EDE5"/>
<path d="M58.3688 77.48H54.1118V86.734H58.3688V77.48Z" fill="#F7EDE5"/>
<path d="M58.3688 92.841H54.1118V102.095H58.3688V92.841Z" fill="#F7EDE5"/>
<path d="M64.4766 69.707C64.4766 70.525 63.8136 71.188 62.9956 71.188C62.1776 71.188 61.5146 70.525 61.5146 69.707C61.5146 68.889 62.1776 68.226 62.9956 68.226C63.8136 68.226 64.4766 68.889 64.4766 69.707Z" fill="#F7EDE5"/>
<path d="M64.4766 85.068C64.4766 85.886 63.8136 86.549 62.9956 86.549C62.1776 86.549 61.5146 85.886 61.5146 85.068C61.5146 84.25 62.1776 83.587 62.9956 83.587C63.8136 83.587 64.4766 84.25 64.4766 85.068Z" fill="#F7EDE5"/>
<path d="M64.4766 100.43C64.4766 101.248 63.8136 101.911 62.9956 101.911C62.1776 101.911 61.5146 101.248 61.5146 100.43C61.5146 99.612 62.1776 98.949 62.9956 98.949C63.8136 98.949 64.4766 99.612 64.4766 100.43Z" fill="#F7EDE5"/>
<path d="M127.294 25.38H53.666C53.057 25.38 52.564 25.787 52.564 26.289V53.718C52.564 54.22 53.057 54.627 53.666 54.627H68.618L64.131 59.713L75.956 54.627H127.294C127.903 54.627 128.396 54.22 128.396 53.718V26.289C128.396 25.787 127.903 25.38 127.294 25.38Z" fill="#F7EDE5"/>
<path d="M63.7949 42.009V36.971C63.7949 35.6 64.5259 34.791 65.8309 34.791C67.1359 34.791 67.8669 35.6 67.8669 36.971V37.911H66.9009V36.906C66.9009 36.136 66.4959 35.718 65.8569 35.718C65.2179 35.718 64.8129 36.136 64.8129 36.906V42.075C64.8129 42.845 65.2179 43.263 65.8569 43.263C66.4959 43.263 66.9009 42.845 66.9009 42.075V40.796H67.8669V42.01C67.8669 43.38 67.1359 44.19 65.8309 44.19C64.5389 44.188 63.7949 43.379 63.7949 42.009Z" fill="#412945"/>
<path d="M71.418 41.93V37.035C71.418 35.586 72.162 34.79 73.506 34.79C74.863 34.79 75.607 35.586 75.607 37.035V41.93C75.607 43.379 74.863 44.188 73.506 44.188C72.162 44.188 71.418 43.379 71.418 41.93ZM74.59 41.995V36.97C74.59 36.135 74.224 35.717 73.507 35.717C72.789 35.717 72.437 36.135 72.437 36.97V41.995C72.437 42.843 72.79 43.261 73.507 43.261C74.224 43.262 74.59 42.844 74.59 41.995Z" fill="#412945"/>
<path d="M79.355 44.057V34.921H81.443C82.813 34.921 83.505 35.665 83.505 37.14V41.839C83.505 43.314 82.813 44.058 81.443 44.058H79.355V44.057ZM80.373 43.131H81.417C82.148 43.131 82.487 42.765 82.487 41.878V37.088C82.487 36.2 82.148 35.848 81.417 35.848H80.373V43.131Z" fill="#412945"/>
<path d="M87.2661 44.057V34.921H88.2841V44.057H87.2661Z" fill="#412945"/>
<path d="M92.1348 44.057V34.921H93.4398L95.5018 41.447V34.921H96.4288V44.057H95.3718L93.0618 36.63V44.057H92.1348Z" fill="#412945"/>
<path d="M100.189 41.93V37.035C100.189 35.586 100.907 34.79 102.251 34.79C103.608 34.79 104.326 35.573 104.326 37.035V37.779H103.36V36.97C103.36 36.135 102.994 35.717 102.277 35.717C101.559 35.717 101.207 36.135 101.207 36.97V42.008C101.207 42.843 101.559 43.261 102.277 43.261C102.995 43.261 103.36 42.843 103.36 42.008V39.959H102.355V39.032H104.326V41.929C104.326 43.391 103.608 44.187 102.251 44.187C100.907 44.188 100.189 43.392 100.189 41.93Z" fill="#412945"/>
<path d="M108.087 44.057V42.739H109.118V44.057H108.087Z" fill="#412945"/>
<path d="M113.086 44.057V42.739H114.117V44.057H113.086Z" fill="#412945"/>
<path d="M118.086 44.057V42.739H119.117V44.057H118.086Z" fill="#412945"/>
<path d="M136.967 101.292C136.967 101.292 118.798 116.346 115.744 126.063C112.69 135.78 112.69 145.774 112.69 145.774L122.407 166.04L165.993 157.711C165.993 157.711 170.557 123.87 155.227 98.454L136.967 101.292Z" fill="#F7EDE5"/>
<path d="M160.163 69.165C160.163 73.942 158.24 78.433 155.424 81.851L155.227 98.455C155.227 98.455 135.854 110.176 134.006 107.958C132.154 105.736 136.967 101.293 136.967 101.293V93.011C131.291 93.065 125.59 91.884 123.763 91.177C122.408 90.652 121.657 87.509 121.251 83.667C121.215 83.305 121.179 82.938 121.146 82.565C120.845 79.067 120.794 75.164 120.816 72.192C120.664 71.206 120.588 70.195 120.588 69.166C120.588 58.238 129.446 49.38 140.374 49.38C151.305 49.379 160.163 58.237 160.163 69.165Z" fill="#FF9582"/>
<path d="M165.16 67.301C164.184 67.301 163.234 67.412 162.32 67.617C162.58 64.531 162.112 61.129 160.164 57.676C154.89 48.332 139.436 43.055 122.962 52.218C122.962 52.218 121.574 59.898 125.644 63.229C129.718 66.56 133.049 66.93 133.049 66.93C133.049 66.93 130.737 70.54 133.143 72.667C136.423 75.574 138.583 74.573 139.12 74.24C139.62 73.388 140.331 72.627 141.24 72.025C142.777 71.014 144.879 70.673 146.452 71.623C148.199 72.678 148.808 75.034 148.348 77.02C147.888 79.006 146.576 80.681 145.18 82.167C144.89 82.479 144.582 82.787 144.241 83.037C144.991 83.845 145.85 84.654 146.836 85.44C153.313 90.623 155.298 91.581 155.298 91.581C155.298 91.581 156.404 91.269 156.501 89.893C158.796 91.956 161.83 93.213 165.159 93.213C172.314 93.213 178.115 87.413 178.115 80.258C178.115 73.101 172.315 67.301 165.16 67.301Z" fill="#E36352"/>
<path d="M126.848 73.917C126.848 75.169 126.144 76.184 125.275 76.184C124.406 76.184 123.702 75.169 123.702 73.917C123.702 72.665 124.406 71.65 125.275 71.65C126.144 71.65 126.848 72.665 126.848 73.917Z" fill="#412945"/>
<path d="M125.803 80.814C124.618 82.195 123.005 83.195 121.251 83.667C121.215 83.305 121.179 82.938 121.146 82.565C122.625 82.134 123.973 81.271 124.977 80.108C125.173 79.88 125.517 79.854 125.745 80.05C125.97 80.245 125.999 80.586 125.803 80.814Z" fill="#412945"/>
<path d="M146.2 77.262C145.344 76.519 144.178 76.167 143.052 76.262C143.652 75.28 144.432 74.41 145.357 73.722C145.598 73.543 145.648 73.202 145.469 72.961C145.289 72.72 144.949 72.67 144.708 72.849C142.385 74.575 140.868 77.329 140.651 80.215C140.629 80.514 140.853 80.775 141.153 80.798C141.167 80.799 141.181 80.799 141.194 80.799C141.476 80.799 141.714 80.582 141.736 80.296C141.809 79.327 142.046 78.375 142.424 77.482C142.445 77.478 142.467 77.475 142.488 77.468C143.504 77.141 144.681 77.383 145.487 78.082C145.59 78.171 145.717 78.215 145.843 78.215C145.995 78.215 146.147 78.152 146.254 78.028C146.451 77.802 146.426 77.459 146.2 77.262Z" fill="#412945"/>
<path d="M127.247 68.628C126.144 67.822 124.687 67.508 123.35 67.785C123.056 67.846 122.867 68.134 122.928 68.428C122.989 68.722 123.281 68.912 123.571 68.85C124.612 68.633 125.746 68.878 126.605 69.506C126.702 69.577 126.814 69.611 126.925 69.611C127.092 69.611 127.258 69.534 127.364 69.388C127.543 69.146 127.49 68.806 127.247 68.628Z" fill="#412945"/>
<path d="M170.649 153.825C153.683 175.8 127.076 189.954 97.1666 189.954C67.2576 189.954 40.6506 175.8 23.6846 153.825H170.649Z" fill="#B5E1E8"/>
<path d="M76.8767 152.159L35.3267 152.53L33.1727 154.318L9.32373 100.245L50.4107 99.136L76.8767 152.159Z" fill="#412945"/>
<path d="M103.991 154.38H33.1979L33.1729 154.318L33.9369 151.636L76.7458 151.259L77.3399 152.437H100.936L103.991 154.38Z" fill="#6E72FF"/>
<path d="M14.5049 103.391L34.8639 149.661L70.7689 146.514L48.7449 102.651L14.5049 103.391Z" fill="#F8BDFF"/>
<path d="M112.69 145.774H80.9487C76.1367 144.941 74.4707 142.905 70.4917 140.869C66.5127 138.833 63.6437 139.944 63.6437 139.944C61.3307 139.666 60.6827 141.332 60.6827 141.332C57.8137 141.147 57.5367 142.72 57.5367 142.72C56.2407 142.998 55.9637 145.866 55.9637 145.866C55.9637 145.866 53.6507 146.051 53.0027 147.162C52.3547 148.273 56.4267 148.273 58.4627 148.735C60.4987 149.198 62.4417 151.141 66.6987 153.547C70.9557 155.953 74.6567 156.508 74.6567 156.508C74.6567 156.508 86.6867 160.395 93.5347 160.765C100.383 161.135 121.482 162.986 121.482 162.986L112.69 145.774Z" fill="#FF9582"/>
<path d="M68.6436 140.844C68.4976 140.804 65.0546 139.866 63.7176 139.59C62.8236 139.404 61.8316 139.596 61.1286 140.09C60.7716 140.341 60.5206 140.656 60.3976 140.997C59.6226 140.997 58.9016 141.099 58.3346 141.369C57.7876 141.63 57.4166 142.027 57.2206 142.544C56.9356 142.618 56.7146 142.744 56.5866 142.936C55.9726 143.857 55.7216 145.072 55.6376 145.583C54.0256 145.843 52.7126 146.309 52.6396 147.13C52.5286 148.396 54.3466 148.584 56.2716 148.784C57.5016 148.912 58.8946 149.057 59.7326 149.476C59.7846 149.502 59.8396 149.514 59.8946 149.514C60.0276 149.514 60.1556 149.441 60.2196 149.314C60.3096 149.135 60.2366 148.917 60.0576 148.828C59.1016 148.35 57.7006 148.204 56.3466 148.064C54.9956 147.923 53.3136 147.749 53.3626 147.194C53.4196 146.547 56.7456 145.997 60.5376 145.997C60.6166 145.997 60.6956 145.997 60.7746 145.998C60.9736 145.998 61.1356 145.837 61.1376 145.638C61.1386 145.438 60.9776 145.274 60.7776 145.273C59.6986 145.262 57.9776 145.289 56.3946 145.478C56.4976 144.947 56.7296 144.029 57.1906 143.338C57.5006 142.872 60.3516 143.37 63.2926 144.404C63.4806 144.47 63.6886 144.371 63.7546 144.182C63.8206 143.993 63.7216 143.786 63.5326 143.72C62.5206 143.364 59.8456 142.483 58.0906 142.459C58.2276 142.283 58.4076 142.136 58.6456 142.023C60.8086 140.993 65.9656 142.857 66.0176 142.876C66.2056 142.944 66.4136 142.848 66.4826 142.66C66.5516 142.472 66.4546 142.264 66.2666 142.195C66.1126 142.139 63.5606 141.217 61.1906 141.029C61.2766 140.906 61.3956 140.788 61.5446 140.683C62.0806 140.306 62.8756 140.156 63.5696 140.3C64.8846 140.572 68.4166 141.534 68.4526 141.544C68.6436 141.597 68.8446 141.483 68.8976 141.29C68.9506 141.096 68.8366 140.896 68.6436 140.844Z" fill="#412945"/>
<path d="M139.064 120.048L110.438 144.602L114.51 164.961C114.51 164.961 130.919 161.753 135.361 160.519C139.803 159.285 157.324 150.031 157.324 150.031L139.064 120.048Z" fill="#F7EDE5"/>
<path d="M114.508 165.504C114.251 165.504 114.026 165.323 113.975 165.067L109.903 144.708C109.867 144.526 109.926 144.337 110.06 144.209C111.18 143.138 137.512 117.954 140.584 116.707C140.862 116.593 141.179 116.728 141.292 117.006C141.405 117.284 141.271 117.601 140.993 117.714C138.624 118.676 118.772 137.382 111.027 144.788L114.943 164.368C117.894 164.035 133.71 161.952 146.558 154.375C146.816 154.223 147.15 154.308 147.302 154.567C147.454 154.825 147.368 155.159 147.11 155.311C132.735 163.789 114.735 165.486 114.555 165.502C114.541 165.504 114.524 165.504 114.508 165.504Z" fill="#412945"/>
<path d="M144.229 30.627L150.107 32.678C150.45 32.798 150.456 33.281 150.116 33.409L144.221 35.629C144.116 35.669 144.033 35.751 143.994 35.856L141.76 41.788C141.633 42.124 141.158 42.124 141.032 41.788L138.798 35.856C138.758 35.751 138.676 35.669 138.571 35.629L132.689 33.414C132.347 33.285 132.355 32.799 132.701 32.682L138.749 30.628C138.863 30.589 138.953 30.499 138.992 30.385L141.041 24.352C141.159 24.005 141.648 23.999 141.774 24.343L143.991 30.394C144.032 30.503 144.119 30.589 144.229 30.627Z" fill="#F7EDE5"/>
<path d="M29.8499 48.215L34.8929 49.975C35.1879 50.078 35.1929 50.493 34.9009 50.602L29.8419 52.507C29.7519 52.541 29.6809 52.612 29.6469 52.702L27.7299 57.792C27.6219 58.08 27.2139 58.08 27.1049 57.792L25.1879 52.702C25.1539 52.612 25.0829 52.541 24.9929 52.507L19.9459 50.606C19.6529 50.496 19.6599 50.079 19.9559 49.978L25.1449 48.215C25.2429 48.182 25.3199 48.104 25.3539 48.006L27.1129 42.829C27.2139 42.531 27.6339 42.526 27.7419 42.821L29.6449 48.013C29.6809 48.108 29.7559 48.182 29.8499 48.215Z" fill="#F7EDE5"/>
<path d="M177.555 101.302L183.073 103.228C183.395 103.34 183.401 103.794 183.081 103.914L177.546 105.998C177.448 106.035 177.37 106.113 177.333 106.211L175.236 111.781C175.117 112.096 174.671 112.096 174.553 111.781L172.456 106.211C172.419 106.113 172.341 106.035 172.243 105.998L166.72 103.918C166.399 103.797 166.407 103.341 166.731 103.23L172.409 101.301C172.516 101.265 172.601 101.18 172.637 101.073L174.561 95.408C174.672 95.082 175.131 95.076 175.25 95.4L177.332 101.081C177.37 101.186 177.451 101.266 177.555 101.302Z" fill="#F7EDE5"/>
<path d="M71.2018 169.101L76.7198 171.027C77.0418 171.139 77.0478 171.593 76.7278 171.713L71.1928 173.797C71.0948 173.834 71.0168 173.912 70.9798 174.01L68.8828 179.58C68.7638 179.895 68.3178 179.895 68.1988 179.58L66.1018 174.01C66.0648 173.912 65.9868 173.834 65.8888 173.797L60.3658 171.717C60.0448 171.596 60.0528 171.14 60.3768 171.029L66.0548 169.1C66.1618 169.064 66.2468 168.979 66.2828 168.872L68.2068 163.207C68.3178 162.881 68.7768 162.875 68.8958 163.199L70.9778 168.88C71.0168 168.984 71.0988 169.065 71.2018 169.101Z" fill="#F7EDE5"/>
</svg>
