<svg width="195" height="195" viewBox="0 0 195 195" fill="none" xmlns="http://www.w3.org/2000/svg">
<path d="M97.167 194.333C93.921 194.333 90.658 194.171 87.469 193.852C87.452 193.851 87.436 193.849 87.42 193.848C55.948 190.715 27.889 172.317 12.362 144.634C4.275 130.213 0 113.799 0 97.167C0 83.478 2.788 70.258 8.289 57.849L3.16202 36.059C2.71602 34.164 3.14801 32.199 4.34601 30.666C5.54401 29.133 7.347 28.24 9.293 28.214L28.968 27.96C47.265 9.91799 71.422 0 97.167 0C97.959 0 98.783 0.0100059 99.686 0.0310059C116.815 0.469006 133.544 5.43299 148.074 14.387C162.21 23.097 173.958 35.357 182.049 49.84C190.086 64.223 194.334 80.589 194.334 97.167C194.334 111.726 191.192 125.728 184.996 138.784C177.223 155.16 165.045 169.022 149.779 178.872C134.101 188.987 115.907 194.333 97.167 194.333Z" fill="white"/>
<path d="M144.215 98.908C144.215 113.229 187.374 125.054 181.619 137.181C166.629 168.76 134.448 190.596 97.1659 190.596C94.0009 190.596 90.8758 190.439 87.7928 190.129H87.7888C71.7528 188.533 69.5169 152.232 56.9069 143.563C45.1059 135.451 22.6528 155.345 15.6198 142.805C8.05184 129.31 3.73584 113.741 3.73584 97.167C3.73584 74.535 11.7819 53.782 25.1689 37.615C42.3079 16.922 54.2759 56.257 83.2429 56.257C84.0579 56.257 98.7918 3.74901 99.5988 3.76801C133.656 4.63901 163.183 23.736 178.786 51.664C186.31 65.128 144.215 82.39 144.215 98.908Z" fill="#6E72FF"/>
<path d="M113.502 35.937C113.502 60.341 93.7209 80.122 69.3169 80.122C45.4779 80.122 26.0479 61.242 25.1699 37.615C42.3089 16.922 68.1999 3.737 97.1669 3.737C97.9819 3.737 98.7929 3.748 99.5999 3.767C108.158 11.821 113.502 23.257 113.502 35.937Z" fill="#FFC063"/>
<path d="M190.596 97.167C190.596 111.488 187.375 125.054 181.619 137.181C177.661 138.347 173.468 138.971 169.133 138.971C144.729 138.971 124.948 119.19 124.948 94.786C124.948 70.386 144.729 50.601 169.133 50.601C172.448 50.601 175.68 50.967 178.786 51.662C186.31 65.128 190.596 80.648 190.596 97.167Z" fill="#FFC063"/>
<path d="M101.106 158.524C101.106 170.913 96.0091 182.109 87.7941 190.129H87.7901C56.7451 187.038 30.1701 168.745 15.6211 142.805C21.9561 126.163 38.0551 114.343 56.9201 114.343C81.3251 114.343 101.106 134.124 101.106 158.524Z" fill="#FFC063"/>
<path d="M22.2603 101.668L22.6823 106.397L72.6802 153.354L156.966 143.558L161.104 138.152L22.2603 101.668Z" fill="#F8BDFF"/>
<path d="M118.454 99.81L104.79 32.866C104.534 31.623 103.432 30.737 102.164 30.753L9.3411 31.949C7.6491 31.971 6.41111 33.554 6.79911 35.201L22.2591 100.907L118.454 99.81Z" fill="#412945"/>
<path d="M118.623 100.654L22.2603 101.668L73.1862 149.047L161.104 138.152L118.623 100.654Z" fill="#412945"/>
<path d="M11.0273 35.624L25.8913 96.938L114.063 96.263L100.888 34.779L11.0273 35.624Z" fill="#F7EDE5"/>
<path d="M153.409 134.906L147.703 129.918L146.687 129.035L141.805 124.768L140.776 123.868L134.792 118.638L133.74 117.718L128.748 113.358L127.673 112.415L123.297 108.594L122.195 107.631L117.26 103.318C117.171 103.242 117.058 103.189 116.933 103.196L109.236 103.226L107.797 103.233L98.8201 103.269H98.8171L97.4141 103.272L82.7241 103.332H82.7211L81.2821 103.335H81.2791L69.5861 103.381H69.5831L68.1601 103.389L55.8881 103.439L54.4361 103.442L42.5181 103.488L41.0531 103.495H41.0501L30.2831 103.538C30.0781 103.538 29.8961 103.664 29.8201 103.856C29.7471 104.045 29.8001 104.263 29.9491 104.399L36.0121 109.926L37.0671 110.885L43.3851 116.647L44.4171 117.586L50.8411 123.441L51.8531 124.367L59.4441 131.284L60.4361 132.19L66.6881 137.889L67.6671 138.779L73.8661 144.432C73.9591 144.515 74.0781 144.561 74.2001 144.561C74.2201 144.561 74.2361 144.558 74.2561 144.558L84.9801 143.364L86.2931 143.218H86.2961L96.0841 142.126L97.3871 141.98L106.993 140.912L108.273 140.77H108.276L119.83 139.48L121.13 139.338L132.492 138.071L133.759 137.929L143.411 136.854L144.704 136.712L153.132 135.772C153.33 135.752 153.493 135.617 153.552 135.428C153.614 135.24 153.555 135.038 153.409 134.906ZM145.344 129.18L137.634 130.037L132.914 125.578L140.436 124.893L145.344 129.18ZM78.9331 136.537H78.9301L72.8931 131.056L83.1571 130.12L88.8791 135.436L78.9331 136.537ZM50.2811 110.534L61.7431 110.23L67.3561 115.443L56.3011 115.999L50.2811 110.534ZM87.8911 109.535L92.8301 114.166L81.3391 114.742L76.2751 109.846L87.8911 109.535ZM103.315 109.125L107.645 113.422L94.2051 114.097L89.2991 109.499L103.311 109.125H103.315ZM113.748 108.85L118.038 112.902L108.984 113.355L104.684 109.088L113.744 108.85H113.748ZM124.842 119.326H124.845L130.634 124.791L121.369 125.638L120.076 125.754L107.834 126.872L101.503 120.938L114.327 120.055H114.33L115.646 119.963L114.71 119.033L109.94 114.303L119.036 113.846L123.862 118.401L124.842 119.326ZM95.0951 128.032L88.6681 121.823L100.149 121.029H100.152L106.51 126.993L95.0951 128.032ZM100.513 120.011L95.2111 115.039L108.598 114.367L113.391 119.124L100.517 120.01H100.513V120.011ZM99.1641 120.107L87.7091 120.897L82.3171 115.687L93.8351 115.108L99.1641 120.107ZM86.3721 120.99L75.5881 121.734H75.5851L69.7531 116.316L80.9531 115.754L86.3721 120.99ZM87.3321 121.916L93.7861 128.151L83.5091 129.09L76.5821 122.656L87.3321 121.916ZM79.9781 114.811L68.7381 115.373L63.1611 110.193L74.8771 109.882L79.9781 114.811ZM68.3711 116.385L74.2291 121.826L63.5381 122.564L57.3361 116.937L68.3711 116.385ZM75.2251 122.753L82.1781 129.21L71.8941 130.149L64.5541 123.487L75.2251 122.753ZM84.4841 129.997L94.7281 129.061L100.044 134.198L90.1831 135.289L84.4841 129.997ZM96.0381 128.942L107.48 127.9L112.7 132.796L101.328 134.056L96.0381 128.942ZM108.8 127.778L120.996 126.667L125.72 131.354L114 132.654L108.8 127.778ZM122.286 126.547L131.594 125.7H131.597L136.34 130.179L126.989 131.214L122.286 126.547ZM139.407 123.993L131.951 124.671L126.192 119.233L133.393 118.737L139.407 123.993ZM132.338 117.814L125.21 118.307L120.41 113.775L127.32 113.428L132.338 117.814ZM126.242 112.489L119.411 112.833L115.151 108.811L121.83 108.636L126.242 112.489ZM116.748 104.193L120.727 107.67L114.128 107.845H114.125L110.285 104.22L116.748 104.193ZM108.846 104.223L112.723 107.885L103.713 108.123L99.8161 104.259L108.846 104.223ZM98.4131 104.265L102.339 108.158L88.2711 108.532L83.7791 104.321L98.4131 104.265ZM82.3341 104.325H82.3371L86.8621 108.572L75.2711 108.88L70.6071 104.371L82.3341 104.325ZM69.1821 104.378L73.8791 108.916L62.1261 109.23H62.1231L56.9531 104.424L69.1821 104.378ZM55.4971 104.431H55.5001L60.7071 109.267L49.2221 109.571H49.2191L43.6061 104.477L55.4971 104.431ZM31.5581 104.523L42.1361 104.483H42.1391L47.7891 109.61L37.4421 109.885L31.5581 104.523ZM38.4981 110.848L48.8481 110.573L54.9011 116.067L44.7791 116.577L38.4981 110.848ZM45.8121 117.517L55.9371 117.008H55.9401L62.1651 122.661L52.2081 123.349L45.8121 117.517ZM53.2211 124.271L63.1841 123.583L70.5541 130.271L60.7831 131.161L53.2211 124.271ZM61.7791 132.068L71.5501 131.178H71.5531L77.6161 136.682L68.0031 137.744L61.7791 132.068ZM74.3681 143.546L68.9801 138.634L78.5931 137.569H78.5961L83.9981 142.475L74.3681 143.546ZM85.3141 142.329L79.9121 137.423L89.8391 136.325L95.1251 141.234L85.3141 142.329ZM120.179 138.445L118.882 138.591L107.348 139.875L106.064 140.017L96.4281 141.089H96.4251L91.1421 136.18L100.97 135.095L102.253 134.953L113.652 133.69L114.952 133.544L126.625 132.254H126.628L131.586 137.176L120.179 138.445ZM132.857 137.033L127.895 132.111L137.286 131.072L142.466 135.964L132.857 137.033ZM143.76 135.819L138.58 130.93L146.36 130.067L151.904 134.913L143.76 135.819Z" fill="#F8BDFF"/>
<path d="M163.614 122.235L168.925 155.055L109.688 157.681L45.2548 172.563L46.1888 156.386L40.4268 142.724L105.047 139.227L163.614 122.235Z" fill="#F7EDE5"/>
<path d="M45.203 172.571L40.375 142.733C40.375 142.733 47.383 144.811 50.679 152.938C53.971 161.065 45.203 172.571 45.203 172.571Z" fill="#B5E1E8"/>
<path d="M109.318 159.602C109.311 159.602 109.303 159.602 109.295 159.602C108.999 159.59 108.769 159.34 108.782 159.044C108.908 156.008 108.949 152.018 108.139 148.08C107.343 144.212 105.782 140.84 103.623 138.328C103.43 138.103 103.456 137.765 103.68 137.572C103.905 137.379 104.243 137.405 104.436 137.629C106.713 140.278 108.357 143.818 109.189 147.864C110.023 151.916 109.982 155.991 109.853 159.088C109.841 159.377 109.603 159.602 109.318 159.602Z" fill="#412945"/>
<path d="M181.5 88.253L182.222 87.558L158.193 62.606L169.117 57.375L168.633 56.364L157.373 61.755L145.355 49.276L136.01 53.936L136.905 71.557L127.028 76.286L127.512 77.298L136.966 72.771L139.1 114.802L139.937 114.759L139.961 118.346C139.963 118.656 140.216 118.905 140.525 118.903C140.713 118.901 140.878 118.808 140.979 118.666C141.045 118.574 141.083 118.46 141.082 118.338L141.058 114.701L142.086 114.649L139.888 71.371L155.352 63.966L180.068 89.631L180.692 89.03L182.266 90.763C182.474 90.992 182.828 91.009 183.058 90.801C183.089 90.773 183.115 90.743 183.138 90.71C183.287 90.5 183.276 90.207 183.096 90.009L181.5 88.253ZM139.827 70.157L139.095 55.738L144.725 52.931L154.533 63.115L139.827 70.157Z" fill="#412945"/>
<path d="M130.886 37.856L121.592 20.179L127.898 17.011L135.08 35.684L130.886 37.856Z" fill="#412945"/>
<path d="M144.509 36.138C150.038 40.063 151.338 47.727 147.413 53.256C143.488 58.785 135.824 60.085 130.295 56.159C124.766 52.234 123.466 44.57 127.392 39.041C131.317 33.513 138.981 32.213 144.509 36.138Z" fill="#B5E1E8"/>
<path d="M146.73 52.77C143.079 57.913 135.924 59.126 130.782 55.475C125.64 51.824 124.426 44.669 128.077 39.527C131.728 34.384 138.883 33.171 144.025 36.822C149.168 40.473 150.381 47.628 146.73 52.77ZM128.991 40.176C125.698 44.815 126.792 51.268 131.431 54.561C136.07 57.854 142.523 56.76 145.816 52.121C149.109 47.482 148.015 41.029 143.376 37.736C138.737 34.443 132.284 35.537 128.991 40.176Z" fill="#412945"/>
<path d="M110.247 15.036L116.307 17.151C116.661 17.275 116.667 17.773 116.316 17.905L110.238 20.194C110.13 20.235 110.045 20.32 110.004 20.428L107.701 26.545C107.571 26.891 107.081 26.891 106.95 26.545L104.647 20.428C104.606 20.32 104.521 20.235 104.413 20.194L98.3479 17.91C97.9959 17.777 98.0039 17.276 98.3599 17.155L104.596 15.037C104.714 14.997 104.807 14.904 104.847 14.786L106.96 8.565C107.082 8.207 107.586 8.20099 107.716 8.55599L110.002 14.795C110.044 14.908 110.133 14.997 110.247 15.036Z" fill="#F7EDE5"/>
<path d="M166.352 103.584L172.412 105.699C172.766 105.823 172.772 106.321 172.421 106.453L166.342 108.742C166.234 108.783 166.149 108.868 166.108 108.976L163.805 115.093C163.675 115.439 163.185 115.439 163.054 115.093L160.751 108.976C160.71 108.868 160.625 108.783 160.517 108.742L154.452 106.458C154.1 106.325 154.108 105.824 154.464 105.703L160.7 103.585C160.818 103.545 160.911 103.452 160.951 103.334L163.064 97.113C163.186 96.755 163.69 96.749 163.82 97.104L166.106 103.343C166.149 103.456 166.239 103.544 166.352 103.584Z" fill="#F7EDE5"/>
<path d="M23.034 118.85L29.094 120.965C29.448 121.089 29.454 121.587 29.103 121.719L23.025 124.008C22.917 124.049 22.832 124.134 22.791 124.242L20.488 130.359C20.358 130.705 19.868 130.705 19.737 130.359L17.434 124.242C17.393 124.134 17.308 124.049 17.2 124.008L11.135 121.724C10.783 121.591 10.791 121.09 11.147 120.969L17.383 118.851C17.501 118.811 17.594 118.718 17.634 118.6L19.747 112.379C19.869 112.021 20.373 112.015 20.503 112.37L22.789 118.609C22.831 118.722 22.921 118.811 23.034 118.85Z" fill="#F7EDE5"/>
<path d="M124.176 167.704L130.236 169.819C130.59 169.943 130.596 170.441 130.245 170.573L124.166 172.862C124.058 172.903 123.973 172.988 123.932 173.096L121.629 179.212C121.499 179.558 121.009 179.558 120.878 179.212L118.575 173.096C118.534 172.988 118.449 172.903 118.341 172.862L112.276 170.578C111.924 170.445 111.932 169.944 112.288 169.823L118.524 167.705C118.642 167.665 118.735 167.572 118.775 167.454L120.888 161.233C121.01 160.875 121.514 160.869 121.644 161.224L123.93 167.463C123.973 167.576 124.063 167.664 124.176 167.704Z" fill="#F7EDE5"/>
</svg>
