<?xml version="1.0" standalone="no"?>
<!DOCTYPE svg PUBLIC "-//W3C//DTD SVG 20010904//EN"
 "http://www.w3.org/TR/2001/REC-SVG-20010904/DTD/svg10.dtd">
<svg version="1.0" xmlns="http://www.w3.org/2000/svg"
 width="700.000000pt" height="700.000000pt" viewBox="0 0 700.000000 700.000000"
 preserveAspectRatio="xMidYMid meet">
<metadata>
Created by potrace 1.14, written by Peter Selinger 2001-2017
</metadata>
<g transform="translate(0.000000,700.000000) scale(0.100000,-0.100000)"
fill="#000000" stroke="none">
<path d="M3298 6995 c-1 -1 -46 -5 -98 -9 -52 -4 -106 -8 -120 -10 -14 -2 -46
-7 -71 -10 -62 -9 -136 -22 -239 -42 -143 -28 -399 -107 -570 -176 -202 -81
-624 -306 -638 -340 -2 -4 -8 -8 -13 -8 -6 0 -15 -4 -22 -10 -7 -5 -59 -45
-117 -88 -113 -84 -125 -93 -239 -193 -143 -124 -249 -234 -370 -384 -40 -49
-85 -106 -101 -125 -15 -19 -40 -48 -54 -65 -100 -113 -312 -497 -407 -737
-44 -110 -61 -172 -114 -408 0 -3 -14 -57 -29 -120 -31 -125 -35 -142 -42
-180 -3 -14 -7 -32 -9 -40 -3 -8 -7 -33 -10 -55 -3 -22 -7 -49 -10 -60 -27
-129 -27 -699 0 -851 3 -16 7 -45 9 -64 3 -19 7 -48 10 -65 3 -16 7 -46 10
-65 28 -198 121 -515 216 -740 164 -389 433 -787 747 -1105 97 -98 220 -214
272 -255 24 -19 48 -40 55 -45 26 -25 123 -95 131 -95 4 0 29 -18 54 -41 25
-22 51 -44 56 -48 28 -20 198 -114 241 -132 27 -12 112 -52 189 -89 268 -130
384 -175 555 -216 8 -2 40 -10 70 -18 30 -8 66 -17 80 -20 149 -29 255 -47
305 -52 33 -3 63 -8 66 -9 15 -10 228 -20 414 -20 187 0 340 8 422 21 16 2 42
6 58 9 17 2 48 7 70 10 526 77 1115 324 1525 639 222 170 250 195 456 407 156
161 326 376 419 531 165 274 266 492 361 776 37 110 101 350 110 411 3 20 7
42 9 49 5 15 24 126 31 187 3 22 7 54 10 70 24 161 24 680 -1 800 -2 11 -7 39
-9 63 -60 497 -272 1043 -583 1504 -75 111 -100 143 -218 278 -195 224 -345
370 -489 475 -15 11 -40 30 -54 43 -15 12 -76 58 -137 101 -340 242 -849 462
-1265 545 -14 3 -34 7 -45 9 -11 3 -56 10 -100 17 -44 7 -87 13 -95 15 -8 2
-49 6 -90 10 -41 4 -84 9 -95 12 -22 5 -491 13 -497 8z"/>
</g>
</svg>
